<svg style="display: none;"><symbol viewBox="0 0 500 500" id="shape-email"><title>email</title><metadata id="svgstored38271833aa37b795fde609d2e367812metadata9"><rdf:RDF><cc:Work rdf:about=""><dc:format>image/svg+xml</dc:format><dc:type rdf:resource="http://purl.org/dc/dcmitype/StillImage"/></cc:Work></rdf:RDF></metadata><sodipodi:namedview pagecolor="#ffffff" bordercolor="#666666" borderopacity="1" objecttolerance="10" gridtolerance="10" guidetolerance="10" inkscape:pageopacity="0" inkscape:pageshadow="2" inkscape:window-width="1280" inkscape:window-height="751" id="svgstored38271833aa37b795fde609d2e367812namedview5" showgrid="false" inkscape:zoom="0.472" inkscape:cx="-198.09322" inkscape:cy="250" inkscape:window-x="0" inkscape:window-y="25" inkscape:window-maximized="1" inkscape:current-layer="Layer_1"/><path clip-rule="evenodd" d="M468.051,222.657c0-12.724-5.27-24.257-13.717-32.527  L282.253,45.304c-17.811-17.807-46.702-17.807-64.505,0L45.666,190.129c-8.448,8.271-13.717,19.803-13.717,32.527v209.054  c0,20.079,16.264,36.341,36.34,36.341h363.421c20.078,0,36.34-16.262,36.34-36.341V222.657z M124.621,186.402h250.758  c11.081,0,19.987,8.905,19.987,19.991v34.523c-0.088,4.359-1.818,8.631-5.181,11.997l-55.966,56.419l83.224,83.127  c6.904,6.904,6.904,18.081,0,24.985s-18.085,6.904-24.985,0l-85.676-85.672H193.034l-85.492,85.672  c-6.907,6.904-18.081,6.904-24.985,0c-6.906-6.904-6.906-18.081,0-24.985l83.131-83.127l-55.875-56.419  c-3.638-3.638-5.363-8.358-5.181-13.177v-33.343C104.632,195.307,113.537,186.402,124.621,186.402z" fill-rule="evenodd" id="svgstored38271833aa37b795fde609d2e367812path3" style="fill-rule:nonzero;"/></symbol><symbol id="shape-facebook"><title>facebook</title> <metadata id="svgstore5e365d69b29216076f40a4582ab42af3metadata8"> <rdf:RDF> <cc:Work rdf:about=""> <dc:format>image/svg+xml</dc:format> <dc:type rdf:resource="http://purl.org/dc/dcmitype/StillImage"/> </cc:Work> </rdf:RDF> </metadata> <sodipodi:namedview pagecolor="#ffffff" bordercolor="#666666" borderopacity="1" objecttolerance="10" gridtolerance="10" guidetolerance="10" inkscape:pageopacity="0" inkscape:pageshadow="2" inkscape:window-width="1280" inkscape:window-height="751" id="svgstore5e365d69b29216076f40a4582ab42af3namedview6" showgrid="false" inkscape:zoom="0.472" inkscape:cx="-198.09322" inkscape:cy="250" inkscape:window-x="0" inkscape:window-y="25" inkscape:window-maximized="1" inkscape:current-layer="svg2"/>  <g id="svgstore5e365d69b29216076f40a4582ab42af3layer1" transform="translate(0,-552.36218)" style="fill-rule:nonzero"> <path d="M 50 0 C 22.3 0 -1.0018638e-016 22.3 0 50 L 0 450 C 0 477.7 22.3 500 50 500 L 225.1875 500 L 225.1875 276.03125 L 180.90625 276.03125 L 180.90625 196.84375 L 225.1875 196.84375 L 225.1875 145.625 C 225.1875 108.94857 242.62281 51.65625 319.1875 51.65625 L 388.15625 51.90625 L 388.15625 128.75 L 338.0625 128.75 C 329.90292 128.75 318.3125 132.83295 318.3125 150.3125 L 318.3125 196.84375 L 389.28125 196.84375 L 381.15625 276.03125 L 318.3125 276.03125 L 318.3125 500 L 450 500 C 477.7 500 500 477.7 500 450 L 500 50 C 500 22.3 477.7 -1.0018638e-016 450 0 L 50 0 z " id="svgstore5e365d69b29216076f40a4582ab42af3rect2995" transform="translate(0,552.36218)"/> </g> </symbol><symbol viewBox="0 0 100 100" id="shape-logo"><title>logo</title><metadata id="svgstore2c5319dba4c0ab120042ff773c999995metadata17"><rdf:RDF><cc:Work rdf:about=""><dc:format>image/svg+xml</dc:format><dc:type rdf:resource="http://purl.org/dc/dcmitype/StillImage"/></cc:Work></rdf:RDF></metadata><sodipodi:namedview pagecolor="#ffffff" bordercolor="#666666" borderopacity="1" objecttolerance="10" gridtolerance="10" guidetolerance="10" inkscape:pageopacity="0" inkscape:pageshadow="2" inkscape:window-width="1280" inkscape:window-height="751" id="svgstore2c5319dba4c0ab120042ff773c999995namedview13" showgrid="false" inkscape:zoom="2.36" inkscape:cx="-39.618644" inkscape:cy="50" inkscape:window-x="0" inkscape:window-y="25" inkscape:window-maximized="1" inkscape:current-layer="Ebene_1"/><path fill-rule="evenodd" clip-rule="evenodd" fill="#646567" d="M84.687,12.766c0.038,1.115-0.175,2.091-0.605,3.026  c-0.248,0.539-0.511,1.073-0.73,1.625c-0.332,0.836-0.136,1.22,0.733,1.676c0.678,0.356,1.148,0.241,1.537-0.45  c0.538-0.959,1.25-1.76,2.383-2.036c0.182-0.044,0.405-0.176,0.564-0.017c0.176,0.175-0.007,0.365-0.078,0.539  c-0.454,1.107-0.942,2.184-1.992,2.888c-0.549,0.369-0.674,0.875-0.534,1.55c1.041,5.016,2.613,9.897,3.727,14.894  c0.456,2.045,0.851,4.099,1.062,6.186c0.077,0.771,0.023,1.533-0.161,2.276c-0.572,2.292-2.534,3.391-5.173,2.922  c-0.167-0.03-0.329-0.084-0.496-0.114c-1.147-0.203-1.911-0.685-2.322-1.944c-0.777-2.379-2.357-4.303-4.099-6.074  c-1.409-1.434-2.88-2.812-4.126-4.396c-0.316-0.402-0.564-0.204-0.866-0.063c-2.34,1.094-3.716,2.986-4.435,5.403  c-0.805,2.703-0.746,5.483-0.709,8.261c0.043,3.31,0.382,6.618,0.029,9.93c-0.163,1.528-0.415,3.034-1.057,4.438  c-0.227,0.496-0.133,0.82,0.177,1.223c1.343,1.748,3.164,2.8,5.16,3.597c0.919,0.366,1.844,0.738,2.796,0.995  c3.89,1.05,7.128,3.085,9.768,6.14c2.251,2.604,4.933,4.75,7.632,6.865c0.323,0.254,0.569,0.515,0.687,0.924  c0.628,2.203,1.778,4.152,3.01,6.056c0.269,0.415,0.457,0.831,0.495,1.326c0.098,1.275,0.691,2.452,0.754,3.737  c0.049,1.001,0.021,1.046-0.95,0.825c-1.939-0.44-3.573-1.536-5.275-2.487c-0.17-0.096-0.276-0.207-0.211-0.4  c0.252-0.743,0.288-1.572,0.836-2.199c0.218-0.251,0.321-0.472,0.196-0.833c-0.597-1.729-1.698-3.173-2.613-4.723  c-2.012-3.406-5.571-4.659-8.824-6.337c-1.009-0.521-1.988-1.087-2.874-1.797c-0.259-0.207-0.544-0.298-0.844-0.366  c-4.498-1.022-8.998-2.056-13.635-2.214c-1.839-0.063-3.682-0.06-5.521-0.028c-1.347,0.023-2.439,0.615-3.299,1.667  c-1.88,2.301-2.943,5.016-3.924,7.762c-1.896,5.31-3.322,10.751-4.422,16.277c-0.126,0.635-0.379,0.858-1.003,0.774  c-1.402-0.188-2.807-0.354-4.213-0.51c-0.414-0.046-0.362-0.23-0.231-0.507c2.527-5.309,3.156-11.061,3.926-16.782  c0.306-2.271,0.649-4.537,1.004-6.801c0.085-0.542,0.058-0.775-0.615-0.808c-3.392-0.16-6.786-0.286-10.175-0.536  c-3.398-0.251-6.729-0.893-10.073-1.484c-2.399-0.425-4.812-0.745-7.262-0.493c-0.405,0.042-0.567,0.11-0.506,0.597  c0.357,2.876-0.358,5.501-1.959,7.898c-0.582,0.871-1.212,1.711-1.755,2.604c-0.333,0.548-0.557,0.529-0.988,0.101  c-2.125-2.111-3.923-4.476-5.405-7.066c-5.07-8.855-7.548-18.371-7.16-28.598c0.057-1.496,0.063-1.488,1.55-1.846  c3.656-0.881,7.38-1.134,11.123-1.178c4.475-0.052,8.955,0.135,13.424-0.181c4.709-0.333,9.357-0.948,13.531-3.42  c2.7-1.599,5.052-3.634,7.301-5.8c3.937-3.791,7.728-7.738,11.984-11.186c3.996-3.237,8.377-5.68,13.527-6.534  c2.247-0.372,4.507-0.483,6.768-0.239c0.735,0.08,1.077-0.188,1.348-0.79C81.408,14.702,82.949,13.687,84.687,12.766z" id="svgstore2c5319dba4c0ab120042ff773c999995path3" style="stroke:none"/><path fill-rule="evenodd" clip-rule="evenodd" fill="#95BE0D" d="M20.225,40.601c-2.208,0-4.417,0.016-6.625-0.003  c-4.084-0.036-8.153,0.136-12.18,0.875c-0.518,0.095-0.572,0.003-0.462-0.484C3.425,30.098,8.201,20.472,16.5,12.813  c6.369-5.877,13.921-9.512,22.304-11.521c13.067-3.131,25.263-0.821,36.761,5.862c1.199,0.697,2.369,1.443,3.558,2.159  c0.305,0.184,0.473,0.334,0.196,0.717c-0.695,0.962-1.507,1.835-2.115,2.869c-0.269,0.455-0.888,0.25-1.347,0.257  c-2.564,0.038-5.071,0.438-7.532,1.145c-5.122,1.471-9.394,4.397-13.387,7.809c-3.665,3.133-7.068,6.54-10.469,9.951  c-1.561,1.565-3.233,3.004-5.031,4.301c-3.538,2.552-7.596,3.565-11.834,4.032C25.154,40.665,22.69,40.739,20.225,40.601z" id="svgstore2c5319dba4c0ab120042ff773c999995path5" style="stroke:none"/><path fill-rule="evenodd" clip-rule="evenodd" fill="#95BE0D" d="M90.778,21.811c2.107,2.074,3.618,4.48,4.839,7.074  c2.591,5.504,3.825,11.339,4.237,17.376c0.456,6.672-0.143,13.233-2.063,19.651c-1.02,3.409-2.438,6.636-4.589,9.504  c-0.823,1.098-0.828,1.106-1.776,0.172c-1.615-1.591-3.226-3.185-4.826-4.789c-2.566-2.574-5.737-4.079-9.122-5.229  c-1.663-0.565-3.273-1.263-4.759-2.219c-0.286-0.185-0.539-0.335-0.464-0.79c0.707-4.286,0.206-8.591,0.188-12.89  c-0.01-2.32-0.129-4.654,0.354-6.944c0.462-2.19,1.022-1.899,2.233-0.776c1.661,1.54,3.12,3.216,3.658,5.499  c0.441,1.874,1.678,3.013,3.372,3.772c2.306,1.033,4.684,1.27,7.134,0.688c3.292-0.781,5.147-3.087,5.387-6.554  c0.242-3.5-0.508-6.87-1.267-10.24c-0.852-3.779-1.94-7.507-2.387-11.37C90.854,23.103,90.826,22.456,90.778,21.811z" id="svgstore2c5319dba4c0ab120042ff773c999995path7" style="stroke:none"/><path fill-rule="evenodd" clip-rule="evenodd" fill="#95BE0D" d="M50.568,100.055c0.682-2.812,1.328-5.558,2.016-8.293  c0.938-3.733,1.929-7.471,3.908-10.807c2.315-3.898,1.258-3.262,5.523-3.253c8.162,0.016,15.683,2.199,22.356,7.039  c0.676,0.489,0.703,0.863,0.258,1.474c-0.488,0.671-1.063,1.252-1.7,1.771c-6.96,5.669-14.728,9.661-23.607,11.326  C56.454,99.85,53.563,100.129,50.568,100.055z" id="svgstore2c5319dba4c0ab120042ff773c999995path9" style="stroke:none"/><path fill-rule="evenodd" clip-rule="evenodd" fill="#95BE0D" d="M21.737,76.573c3.14,0.422,6.28,0.843,9.419,1.271  c3.116,0.425,6.246,0.663,9.39,0.719c0.437,0.008,0.698,0.046,0.604,0.6c-0.672,3.959-0.994,7.973-1.848,11.903  c-0.475,2.188-1.137,4.312-2.078,6.354c-0.306,0.663-0.643,0.743-1.296,0.575c-5.419-1.398-10.279-3.944-14.796-7.185  c-1.586-1.139-3.102-2.377-4.68-3.526c-0.469-0.342-0.428-0.594-0.153-1.023c0.858-1.338,1.913-2.526,2.843-3.81  c1.185-1.635,2.024-3.396,2.114-5.455C21.276,76.543,21.306,76.544,21.737,76.573z" id="svgstore2c5319dba4c0ab120042ff773c999995path11" style="stroke:none"/></symbol><symbol viewBox="0 0 17.7 17.3" id="shape-triangle-down"><title>triangle-down</title> <polygon points="8.9,17.3 17.7,0 0,0 8.9,17.3 "/> </symbol><symbol viewBox="0 0 17.7 17.3" id="shape-triangle-right"><title>triangle-right</title> <polygon points="17.5,8.7 0.2,-0.2 0.2,17.5 17.5,8.7 "/> </symbol><symbol viewBox="0 0 17.7 17.3" id="shape-triangle-up"><title>triangle-up</title> <polygon points="8.9,0 0,17.3 17.7,17.3 8.9,0 "/> </symbol><symbol viewBox="0 0 273.4 222.2" id="shape-twitter"><title>twitter</title> <path d="M273.4,26.3c-10.1,4.5-20.9,7.5-32.2,8.8c11.6-6.9,20.5-17.9,24.7-31C255,10.5,243,15.2,230.2,17.7C220,6.8,205.4,0,189.3,0
	c-31,0-56.1,25.1-56.1,56.1c0,4.4,0.5,8.7,1.5,12.8C88,66.5,46.7,44.2,19,10.3c-4.8,8.3-7.6,17.9-7.6,28.2c0,19.5,9.9,36.6,25,46.7
	c-9.2-0.3-17.8-2.8-25.4-7c0,0.2,0,0.5,0,0.7c0,27.2,19.3,49.8,45,55c-4.7,1.3-9.7,2-14.8,2c-3.6,0-7.1-0.4-10.6-1
	c7.1,22.3,27.9,38.5,52.4,39c-19.2,15-43.4,24-69.7,24c-4.5,0-9-0.3-13.4-0.8c24.8,15.9,54.3,25.2,86,25.2
	c103.2,0,159.6-85.5,159.6-159.6c0-2.4-0.1-4.9-0.2-7.3C256.4,47.4,265.9,37.5,273.4,26.3z"/> </symbol></svg>